{
	"asset":{
		"generator":"Khronos glTF Blender I/O v4.0.44",
		"version":"2.0"
	},
	"extensionsUsed":[
		"KHR_materials_clearcoat",
		"KHR_materials_specular",
		"KHR_materials_ior",
		"KHR_materials_transmission",
		"KHR_materials_sheen"
	],
	"scene":0,
	"scenes":[
		{
			"name":"Scene",
			"nodes":[
				8
			]
		}
	],
	"nodes":[
		{
			"mesh":0,
			"name":"\u041a\u0443\u0431",
			"translation":[
				0.041837938129901886,
				0.30935612320899963,
				0.0693056732416153
			]
		},
		{
			"mesh":1,
			"name":"\u041a\u0443\u0431.001",
			"translation":[
				-0.004764179233461618,
				0.45849815011024475,
				-0.010148150846362114
			]
		},
		{
			"mesh":2,
			"name":"\u041a\u0443\u0431.002",
			"translation":[
				0.2453998327255249,
				0.18406186997890472,
				-0.00663081556558609
			]
		},
		{
			"mesh":3,
			"name":"\u041a\u0443\u0431.003",
			"translation":[
				-0.22421912848949432,
				0.45036569237709045,
				-0.020812900736927986
			]
		},
		{
			"mesh":4,
			"name":"\u041a\u0443\u0431.004",
			"translation":[
				-0.07908573001623154,
				0.23826488852500916,
				0.048341959714889526
			]
		},
		{
			"mesh":5,
			"name":"\u041a\u0443\u0431.005",
			"translation":[
				0.017853425815701485,
				0.3925075829029083,
				-0.018597491085529327
			]
		},
		{
			"mesh":6,
			"name":"\u041f\u043b\u043e\u0441\u043a\u043e\u0441\u0442\u044c",
			"translation":[
				0.02446172945201397,
				0.5369154214859009,
				0.05818495899438858
			]
		},
		{
			"mesh":7,
			"name":"\u0421\u0444\u0435\u0440\u0430.002",
			"translation":[
				0.01723594218492508,
				0.04296529293060303,
				0.0116724306717515
			]
		},
		{
			"children":[
				0,
				1,
				2,
				3,
				4,
				5,
				6,
				7
			],
			"name":"Bmo",
			"scale":[
				7.943467617034912,
				7.943467617034912,
				7.943467617034912
			]
		}
	],
	"materials":[
		{
			"doubleSided":true,
			"name":"\u041c\u0430\u0442\u0435\u0440\u0438\u0430\u043b.002",
			"pbrMetallicRoughness":{
				"baseColorFactor":[
					0.913098931312561,
					0.7379106283187866,
					0.04373503103852272,
					1
				],
				"metallicFactor":0,
				"roughnessFactor":0.5
			}
		},
		{
			"doubleSided":true,
			"name":"\u041c\u0430\u0442\u0435\u0440\u0438\u0430\u043b.003",
			"pbrMetallicRoughness":{
				"baseColorFactor":[
					0.8796226382255554,
					0.0027317435014992952,
					0.07036010175943375,
					1
				],
				"metallicFactor":0,
				"roughnessFactor":0.5
			}
		},
		{
			"doubleSided":true,
			"name":"\u041c\u0430\u0442\u0435\u0440\u0438\u0430\u043b.004",
			"pbrMetallicRoughness":{
				"baseColorFactor":[
					0.008568127639591694,
					0.9386860132217407,
					0.038204375654459,
					1
				],
				"metallicFactor":0,
				"roughnessFactor":0.5
			}
		},
		{
			"doubleSided":true,
			"name":"\u041c\u0430\u0442\u0435\u0440\u0438\u0430\u043b.005",
			"pbrMetallicRoughness":{
				"baseColorFactor":[
					0.025186864659190178,
					0.7835378646850586,
					0.8796226382255554,
					1
				],
				"metallicFactor":0,
				"roughnessFactor":0.5
			}
		},
		{
			"doubleSided":true,
			"name":"\u041c\u0430\u0442\u0435\u0440\u0438\u0430\u043b.006",
			"pbrMetallicRoughness":{
				"baseColorFactor":[
					0.004024718888103962,
					0.014443845488131046,
					0.16202937066555023,
					1
				],
				"metallicFactor":0,
				"roughnessFactor":0.5
			}
		},
		{
			"doubleSided":true,
			"extensions":{
				"KHR_materials_clearcoat":{
					"clearcoatFactor":0.01004016399383545,
					"clearcoatRoughnessFactor":0.32113924622535706
				},
				"KHR_materials_specular":{
					"specularColorFactor":[
						1.151898741722107,
						1.151898741722107,
						1.151898741722107
					]
				},
				"KHR_materials_ior":{
					"ior":1.4500000476837158
				}
			},
			"name":"b1",
			"pbrMetallicRoughness":{
				"baseColorFactor":[
					0.12743771076202393,
					0.49693313241004944,
					0.3613068759441376,
					1
				],
				"metallicFactor":0,
				"roughnessFactor":0.6402451992034912
			}
		},
		{
			"doubleSided":true,
			"emissiveFactor":[
				0.37905099987983704,
				0.5912860035896301,
				0.6266636252403259
			],
			"extensions":{
				"KHR_materials_specular":{
					"specularColorFactor":[
						1.589492177355794,
						1.67238333287969,
						1.62654537597669
					]
				},
				"KHR_materials_ior":{
					"ior":1.4500000476837158
				}
			},
			"name":"b2",
			"pbrMetallicRoughness":{
				"baseColorFactor":[
					0.8366308808326721,
					1,
					0.9804611802101135,
					1
				],
				"metallicFactor":0,
				"roughnessFactor":0
			}
		},
		{
			"doubleSided":true,
			"extensions":{
				"KHR_materials_specular":{
					"specularFactor":0
				},
				"KHR_materials_ior":{
					"ior":1.4500000476837158
				}
			},
			"name":"b3",
			"pbrMetallicRoughness":{
				"baseColorFactor":[
					0.05485805869102478,
					0.133615180850029,
					0.11391883343458176,
					1
				],
				"metallicFactor":0
			}
		},
		{
			"doubleSided":true,
			"name":"\u041c\u0430\u0442\u0435\u0440\u0438\u0430\u043b.011",
			"pbrMetallicRoughness":{
				"baseColorFactor":[
					0.08228270709514618,
					0.18447501957416534,
					0.14995980262756348,
					1
				],
				"metallicFactor":0,
				"roughnessFactor":0.6184210777282715
			}
		},
		{
			"doubleSided":true,
			"name":"\u041c\u0430\u0442\u0435\u0440\u0438\u0430\u043b.012",
			"pbrMetallicRoughness":{
				"baseColorFactor":[
					0.08437623083591461,
					0.18782080709934235,
					0.14995980262756348,
					1
				],
				"metallicFactor":0,
				"roughnessFactor":0.6184210777282715
			}
		},
		{
			"doubleSided":true,
			"name":"\u041c\u0430\u0442\u0435\u0440\u0438\u0430\u043b.009",
			"pbrMetallicRoughness":{
				"baseColorFactor":[
					0.3031978905200958,
					0.3031978905200958,
					0.3031978905200958,
					1
				],
				"metallicFactor":0,
				"roughnessFactor":0.5
			}
		},
		{
			"doubleSided":true,
			"name":"\u041c\u0430\u0442\u0435\u0440\u0438\u0430\u043b.007",
			"pbrMetallicRoughness":{
				"baseColorFactor":[
					0,
					0.0027317435014992952,
					0,
					1
				],
				"metallicFactor":0,
				"roughnessFactor":0.5
			}
		},
		{
			"doubleSided":true,
			"extensions":{
				"KHR_materials_transmission":{
					"transmissionFactor":1
				},
				"KHR_materials_specular":{
					"specularColorFactor":[
						1.2818182706832886,
						1.2818182706832886,
						1.2818182706832886
					],
					"specularColorTexture":{
						"index":0
					}
				},
				"KHR_materials_ior":{
					"ior":1.4500000476837158
				}
			},
			"name":"\u041c\u0430\u0442\u0435\u0440\u0438\u0430\u043b.013",
			"pbrMetallicRoughness":{
				"baseColorTexture":{
					"index":1
				},
				"metallicFactor":0.03181818127632141,
				"roughnessFactor":0
			}
		},
		{
			"doubleSided":true,
			"extensions":{
				"KHR_materials_specular":{
					"specularColorFactor":[
						1.263157844543457,
						1.263157844543457,
						1.263157844543457
					]
				},
				"KHR_materials_sheen":{
					"sheenColorFactor":[
						1.0,
						1.0,
						1.0
					],
					"sheenRoughnessFactor":0.5
				},
				"KHR_materials_ior":{
					"ior":1.4500000476837158
				}
			},
			"name":"\u041c\u0430\u0442\u0435\u0440\u0438\u0430\u043b.010",
			"pbrMetallicRoughness":{
				"baseColorFactor":[
					0.06869640201330185,
					0.17335528135299683,
					0.1291564702987671,
					1
				],
				"metallicFactor":0,
				"roughnessFactor":0.6973684430122375
			}
		}
	],
	"meshes":[
		{
			"name":"\u041a\u0443\u0431.001",
			"primitives":[
				{
					"attributes":{
						"POSITION":0,
						"NORMAL":1,
						"TEXCOORD_0":2
					},
					"indices":3,
					"material":0
				},
				{
					"attributes":{
						"POSITION":4,
						"NORMAL":5,
						"TEXCOORD_0":6
					},
					"indices":7,
					"material":1
				},
				{
					"attributes":{
						"POSITION":8,
						"NORMAL":9,
						"TEXCOORD_0":10
					},
					"indices":11,
					"material":2
				},
				{
					"attributes":{
						"POSITION":12,
						"NORMAL":13,
						"TEXCOORD_0":14
					},
					"indices":15,
					"material":3
				},
				{
					"attributes":{
						"POSITION":16,
						"NORMAL":17,
						"TEXCOORD_0":18
					},
					"indices":19,
					"material":4
				}
			]
		},
		{
			"name":"\u041a\u0443\u0431",
			"primitives":[
				{
					"attributes":{
						"POSITION":20,
						"NORMAL":21,
						"TEXCOORD_0":22
					},
					"indices":23,
					"material":5
				},
				{
					"attributes":{
						"POSITION":24,
						"NORMAL":25,
						"TEXCOORD_0":26
					},
					"indices":27,
					"material":6
				},
				{
					"attributes":{
						"POSITION":28,
						"NORMAL":29,
						"TEXCOORD_0":30
					},
					"indices":31,
					"material":7
				}
			]
		},
		{
			"name":"\u041a\u0443\u0431.009",
			"primitives":[
				{
					"attributes":{
						"POSITION":32,
						"NORMAL":33,
						"TEXCOORD_0":34
					},
					"indices":35,
					"material":8
				}
			]
		},
		{
			"name":"\u041a\u0443\u0431.010",
			"primitives":[
				{
					"attributes":{
						"POSITION":36,
						"NORMAL":37,
						"TEXCOORD_0":38
					},
					"indices":39,
					"material":9
				}
			]
		},
		{
			"name":"\u041a\u0443\u0431.008",
			"primitives":[
				{
					"attributes":{
						"POSITION":40,
						"NORMAL":41,
						"TEXCOORD_0":42
					},
					"indices":43,
					"material":10
				}
			]
		},
		{
			"name":"\u041a\u0443\u0431.007",
			"primitives":[
				{
					"attributes":{
						"POSITION":44,
						"NORMAL":45,
						"TEXCOORD_0":46
					},
					"indices":47,
					"material":11
				}
			]
		},
		{
			"name":"\u041f\u043b\u043e\u0441\u043a\u043e\u0441\u0442\u044c",
			"primitives":[
				{
					"attributes":{
						"POSITION":48,
						"NORMAL":49,
						"TEXCOORD_0":50
					},
					"indices":51,
					"material":12
				}
			]
		},
		{
			"name":"\u0421\u0444\u0435\u0440\u0430.004",
			"primitives":[
				{
					"attributes":{
						"POSITION":52,
						"NORMAL":53,
						"TEXCOORD_0":54
					},
					"indices":55,
					"material":13
				}
			]
		}
	],
	"textures":[
		{
			"sampler":0,
			"source":0
		},
		{
			"sampler":0,
			"source":0
		}
	],
	"images":[
		{
			"mimeType":"image/jpeg",
			"name":"face texture",
			"uri":"face%20texture.jpg"
		}
	],
	"accessors":[
		{
			"bufferView":0,
			"componentType":5126,
			"count":423,
			"max":[
				-0.10636207461357117,
				0.013788610696792603,
				0.007309563457965851
			],
			"min":[
				-0.14495643973350525,
				-0.02318418025970459,
				-0.013318084180355072
			],
			"type":"VEC3"
		},
		{
			"bufferView":1,
			"componentType":5126,
			"count":423,
			"type":"VEC3"
		},
		{
			"bufferView":2,
			"componentType":5126,
			"count":423,
			"type":"VEC2"
		},
		{
			"bufferView":3,
			"componentType":5123,
			"count":1500,
			"type":"SCALAR"
		},
		{
			"bufferView":4,
			"componentType":5126,
			"count":244,
			"max":[
				0.05832060053944588,
				-0.02617037296295166,
				0.007022522389888763
			],
			"min":[
				0.008101854473352432,
				-0.07638910412788391,
				-0.0431961864233017
			],
			"type":"VEC3"
		},
		{
			"bufferView":5,
			"componentType":5126,
			"count":244,
			"type":"VEC3"
		},
		{
			"bufferView":6,
			"componentType":5126,
			"count":244,
			"type":"VEC2"
		},
		{
			"bufferView":7,
			"componentType":5123,
			"count":948,
			"type":"SCALAR"
		},
		{
			"bufferView":8,
			"componentType":5126,
			"count":244,
			"max":[
				0.09885095059871674,
				0.006462574005126953,
				0.007241763174533844
			],
			"min":[
				0.06838004291057587,
				-0.024008333683013916,
				-0.02322912961244583
			],
			"type":"VEC3"
		},
		{
			"bufferView":9,
			"componentType":5126,
			"count":244,
			"type":"VEC3"
		},
		{
			"bufferView":10,
			"componentType":5126,
			"count":244,
			"type":"VEC2"
		},
		{
			"bufferView":11,
			"componentType":5123,
			"count":948,
			"type":"SCALAR"
		},
		{
			"bufferView":12,
			"componentType":5126,
			"count":33,
			"max":[
				0.03449041023850441,
				0.024522870779037476,
				0.00739026814699173
			],
			"min":[
				3.92422080039978e-05,
				-0.005312740802764893,
				-0.03239051252603531
			],
			"type":"VEC3"
		},
		{
			"bufferView":13,
			"componentType":5126,
			"count":33,
			"type":"VEC3"
		},
		{
			"bufferView":14,
			"componentType":5126,
			"count":33,
			"type":"VEC2"
		},
		{
			"bufferView":15,
			"componentType":5123,
			"count":78,
			"type":"SCALAR"
		},
		{
			"bufferView":16,
			"componentType":5126,
			"count":244,
			"max":[
				0.09209175407886505,
				0.07964101433753967,
				0.0046296194195747375
			],
			"min":[
				0.0668451339006424,
				0.05439439415931702,
				-0.020616985857486725
			],
			"type":"VEC3"
		},
		{
			"bufferView":17,
			"componentType":5126,
			"count":244,
			"type":"VEC3"
		},
		{
			"bufferView":18,
			"componentType":5126,
			"count":244,
			"type":"VEC2"
		},
		{
			"bufferView":19,
			"componentType":5123,
			"count":948,
			"type":"SCALAR"
		},
		{
			"bufferView":20,
			"componentType":5126,
			"count":2657,
			"max":[
				0.20604857802391052,
				0.22253915667533875,
				0.08014059066772461
			],
			"min":[
				-0.16079895198345184,
				-0.2668702006340027,
				-0.10494811832904816
			],
			"type":"VEC3"
		},
		{
			"bufferView":21,
			"componentType":5126,
			"count":2657,
			"type":"VEC3"
		},
		{
			"bufferView":22,
			"componentType":5126,
			"count":2657,
			"type":"VEC2"
		},
		{
			"bufferView":23,
			"componentType":5123,
			"count":10584,
			"type":"SCALAR"
		},
		{
			"bufferView":24,
			"componentType":5126,
			"count":37,
			"max":[
				0.16651371121406555,
				0.1836799681186676,
				0.06766918301582336
			],
			"min":[
				-0.12036090344190598,
				-0.0424329936504364,
				0.06766918301582336
			],
			"type":"VEC3"
		},
		{
			"bufferView":25,
			"componentType":5126,
			"count":37,
			"type":"VEC3"
		},
		{
			"bufferView":26,
			"componentType":5126,
			"count":37,
			"type":"VEC2"
		},
		{
			"bufferView":27,
			"componentType":5123,
			"count":105,
			"type":"SCALAR"
		},
		{
			"bufferView":28,
			"componentType":5126,
			"count":2779,
			"max":[
				0.20604857802391052,
				0.19465357065200806,
				0.07885739952325821
			],
			"min":[
				-0.16079895198345184,
				-0.23942795395851135,
				-0.10494811832904816
			],
			"type":"VEC3"
		},
		{
			"bufferView":29,
			"componentType":5126,
			"count":2779,
			"type":"VEC3"
		},
		{
			"bufferView":30,
			"componentType":5126,
			"count":2779,
			"type":"VEC2"
		},
		{
			"bufferView":31,
			"componentType":5123,
			"count":5355,
			"type":"SCALAR"
		},
		{
			"bufferView":32,
			"componentType":5126,
			"count":1242,
			"max":[
				0.026486415416002274,
				0.15344010293483734,
				0.022568894550204277
			],
			"min":[
				-0.05129578709602356,
				-0.08014604449272156,
				-0.028363598510622978
			],
			"type":"VEC3"
		},
		{
			"bufferView":33,
			"componentType":5126,
			"count":1242,
			"type":"VEC3"
		},
		{
			"bufferView":34,
			"componentType":5126,
			"count":1242,
			"type":"VEC2"
		},
		{
			"bufferView":35,
			"componentType":5123,
			"count":6720,
			"type":"SCALAR"
		},
		{
			"bufferView":36,
			"componentType":5126,
			"count":1235,
			"max":[
				0.06808359920978546,
				0.10459135472774506,
				0.018289027735590935
			],
			"min":[
				-0.04879648610949516,
				-0.15576817095279694,
				-0.018791576847434044
			],
			"type":"VEC3"
		},
		{
			"bufferView":37,
			"componentType":5126,
			"count":1235,
			"type":"VEC3"
		},
		{
			"bufferView":38,
			"componentType":5126,
			"count":1235,
			"type":"VEC2"
		},
		{
			"bufferView":39,
			"componentType":5123,
			"count":6720,
			"type":"SCALAR"
		},
		{
			"bufferView":40,
			"componentType":5126,
			"count":48,
			"max":[
				0.0314796008169651,
				0.002651721239089966,
				0.010568104684352875
			],
			"min":[
				-0.031479597091674805,
				-0.0026517361402511597,
				-0.010568104684352875
			],
			"type":"VEC3"
		},
		{
			"bufferView":41,
			"componentType":5126,
			"count":48,
			"type":"VEC3"
		},
		{
			"bufferView":42,
			"componentType":5126,
			"count":48,
			"type":"VEC2"
		},
		{
			"bufferView":43,
			"componentType":5123,
			"count":72,
			"type":"SCALAR"
		},
		{
			"bufferView":44,
			"componentType":5126,
			"count":1340,
			"max":[
				0.18695805966854095,
				0.11753928661346436,
				0.036959510296583176
			],
			"min":[
				-0.187062606215477,
				-0.10689496994018555,
				-0.03695625811815262
			],
			"type":"VEC3"
		},
		{
			"bufferView":45,
			"componentType":5126,
			"count":1340,
			"type":"VEC3"
		},
		{
			"bufferView":46,
			"componentType":5126,
			"count":1340,
			"type":"VEC2"
		},
		{
			"bufferView":47,
			"componentType":5123,
			"count":3504,
			"type":"SCALAR"
		},
		{
			"bufferView":48,
			"componentType":5126,
			"count":4,
			"max":[
				0.15824243426322937,
				0.12439775466918945,
				2.60770320892334e-08
			],
			"min":[
				-0.15824243426322937,
				-0.12439766526222229,
				-2.60770320892334e-08
			],
			"type":"VEC3"
		},
		{
			"bufferView":49,
			"componentType":5126,
			"count":4,
			"type":"VEC3"
		},
		{
			"bufferView":50,
			"componentType":5126,
			"count":4,
			"type":"VEC2"
		},
		{
			"bufferView":51,
			"componentType":5123,
			"count":6,
			"type":"SCALAR"
		},
		{
			"bufferView":52,
			"componentType":5126,
			"count":1428,
			"max":[
				0.11051579564809799,
				0.1566726565361023,
				0.030109800398349762
			],
			"min":[
				-0.1101561114192009,
				-0.04219850152730942,
				-0.04743152856826782
			],
			"type":"VEC3"
		},
		{
			"bufferView":53,
			"componentType":5126,
			"count":1428,
			"type":"VEC3"
		},
		{
			"bufferView":54,
			"componentType":5126,
			"count":1428,
			"type":"VEC2"
		},
		{
			"bufferView":55,
			"componentType":5123,
			"count":6720,
			"type":"SCALAR"
		}
	],
	"bufferViews":[
		{
			"buffer":0,
			"byteLength":5076,
			"byteOffset":0,
			"target":34962
		},
		{
			"buffer":0,
			"byteLength":5076,
			"byteOffset":5076,
			"target":34962
		},
		{
			"buffer":0,
			"byteLength":3384,
			"byteOffset":10152,
			"target":34962
		},
		{
			"buffer":0,
			"byteLength":3000,
			"byteOffset":13536,
			"target":34963
		},
		{
			"buffer":0,
			"byteLength":2928,
			"byteOffset":16536,
			"target":34962
		},
		{
			"buffer":0,
			"byteLength":2928,
			"byteOffset":19464,
			"target":34962
		},
		{
			"buffer":0,
			"byteLength":1952,
			"byteOffset":22392,
			"target":34962
		},
		{
			"buffer":0,
			"byteLength":1896,
			"byteOffset":24344,
			"target":34963
		},
		{
			"buffer":0,
			"byteLength":2928,
			"byteOffset":26240,
			"target":34962
		},
		{
			"buffer":0,
			"byteLength":2928,
			"byteOffset":29168,
			"target":34962
		},
		{
			"buffer":0,
			"byteLength":1952,
			"byteOffset":32096,
			"target":34962
		},
		{
			"buffer":0,
			"byteLength":1896,
			"byteOffset":34048,
			"target":34963
		},
		{
			"buffer":0,
			"byteLength":396,
			"byteOffset":35944,
			"target":34962
		},
		{
			"buffer":0,
			"byteLength":396,
			"byteOffset":36340,
			"target":34962
		},
		{
			"buffer":0,
			"byteLength":264,
			"byteOffset":36736,
			"target":34962
		},
		{
			"buffer":0,
			"byteLength":156,
			"byteOffset":37000,
			"target":34963
		},
		{
			"buffer":0,
			"byteLength":2928,
			"byteOffset":37156,
			"target":34962
		},
		{
			"buffer":0,
			"byteLength":2928,
			"byteOffset":40084,
			"target":34962
		},
		{
			"buffer":0,
			"byteLength":1952,
			"byteOffset":43012,
			"target":34962
		},
		{
			"buffer":0,
			"byteLength":1896,
			"byteOffset":44964,
			"target":34963
		},
		{
			"buffer":0,
			"byteLength":31884,
			"byteOffset":46860,
			"target":34962
		},
		{
			"buffer":0,
			"byteLength":31884,
			"byteOffset":78744,
			"target":34962
		},
		{
			"buffer":0,
			"byteLength":21256,
			"byteOffset":110628,
			"target":34962
		},
		{
			"buffer":0,
			"byteLength":21168,
			"byteOffset":131884,
			"target":34963
		},
		{
			"buffer":0,
			"byteLength":444,
			"byteOffset":153052,
			"target":34962
		},
		{
			"buffer":0,
			"byteLength":444,
			"byteOffset":153496,
			"target":34962
		},
		{
			"buffer":0,
			"byteLength":296,
			"byteOffset":153940,
			"target":34962
		},
		{
			"buffer":0,
			"byteLength":210,
			"byteOffset":154236,
			"target":34963
		},
		{
			"buffer":0,
			"byteLength":33348,
			"byteOffset":154448,
			"target":34962
		},
		{
			"buffer":0,
			"byteLength":33348,
			"byteOffset":187796,
			"target":34962
		},
		{
			"buffer":0,
			"byteLength":22232,
			"byteOffset":221144,
			"target":34962
		},
		{
			"buffer":0,
			"byteLength":10710,
			"byteOffset":243376,
			"target":34963
		},
		{
			"buffer":0,
			"byteLength":14904,
			"byteOffset":254088,
			"target":34962
		},
		{
			"buffer":0,
			"byteLength":14904,
			"byteOffset":268992,
			"target":34962
		},
		{
			"buffer":0,
			"byteLength":9936,
			"byteOffset":283896,
			"target":34962
		},
		{
			"buffer":0,
			"byteLength":13440,
			"byteOffset":293832,
			"target":34963
		},
		{
			"buffer":0,
			"byteLength":14820,
			"byteOffset":307272,
			"target":34962
		},
		{
			"buffer":0,
			"byteLength":14820,
			"byteOffset":322092,
			"target":34962
		},
		{
			"buffer":0,
			"byteLength":9880,
			"byteOffset":336912,
			"target":34962
		},
		{
			"buffer":0,
			"byteLength":13440,
			"byteOffset":346792,
			"target":34963
		},
		{
			"buffer":0,
			"byteLength":576,
			"byteOffset":360232,
			"target":34962
		},
		{
			"buffer":0,
			"byteLength":576,
			"byteOffset":360808,
			"target":34962
		},
		{
			"buffer":0,
			"byteLength":384,
			"byteOffset":361384,
			"target":34962
		},
		{
			"buffer":0,
			"byteLength":144,
			"byteOffset":361768,
			"target":34963
		},
		{
			"buffer":0,
			"byteLength":16080,
			"byteOffset":361912,
			"target":34962
		},
		{
			"buffer":0,
			"byteLength":16080,
			"byteOffset":377992,
			"target":34962
		},
		{
			"buffer":0,
			"byteLength":10720,
			"byteOffset":394072,
			"target":34962
		},
		{
			"buffer":0,
			"byteLength":7008,
			"byteOffset":404792,
			"target":34963
		},
		{
			"buffer":0,
			"byteLength":48,
			"byteOffset":411800,
			"target":34962
		},
		{
			"buffer":0,
			"byteLength":48,
			"byteOffset":411848,
			"target":34962
		},
		{
			"buffer":0,
			"byteLength":32,
			"byteOffset":411896,
			"target":34962
		},
		{
			"buffer":0,
			"byteLength":12,
			"byteOffset":411928,
			"target":34963
		},
		{
			"buffer":0,
			"byteLength":17136,
			"byteOffset":411940,
			"target":34962
		},
		{
			"buffer":0,
			"byteLength":17136,
			"byteOffset":429076,
			"target":34962
		},
		{
			"buffer":0,
			"byteLength":11424,
			"byteOffset":446212,
			"target":34962
		},
		{
			"buffer":0,
			"byteLength":13440,
			"byteOffset":457636,
			"target":34963
		}
	],
	"samplers":[
		{
			"magFilter":9729,
			"minFilter":9987
		}
	],
	"buffers":[
		{
			"byteLength":471076,
			"uri":"bmo.bin"
		}
	]
}
