{
	"asset":{
		"generator":"Khronos glTF Blender I/O v4.0.44",
		"version":"2.0"
	},
	"scene":0,
	"scenes":[
		{
			"name":"Scene",
			"nodes":[
				3
			]
		}
	],
	"nodes":[
		{
			"mesh":0,
			"name":"Curve"
		},
		{
			"mesh":1,
			"name":"Curve.002"
		},
		{
			"mesh":2,
			"name":"Curve.003"
		},
		{
			"children":[
				0,
				1,
				2
			],
			"mesh":3,
			"name":"Curve.001",
			"rotation":[
				0.711143970489502,
				0.003933758474886417,
				0.009886893443763256,
				0.7029658555984497
			],
			"scale":[
				57.669342041015625,
				57.669342041015625,
				57.669342041015625
			],
			"translation":[
				-1.9452311992645264,
				0.3692246675491333,
				-0.041885729879140854
			]
		}
	],
	"materials":[
		{
			"doubleSided":true,
			"name":"SVGMat.001",
			"pbrMetallicRoughness":{
				"baseColorFactor":[
					0.8227857351303101,
					0.05612849071621895,
					0.03560131415724754,
					1
				],
				"metallicFactor":0,
				"roughnessFactor":0.4000000059604645
			}
		},
		{
			"doubleSided":true,
			"name":"SVGMat.003",
			"pbrMetallicRoughness":{
				"baseColorFactor":[
					0.9646862745285034,
					0.5028864741325378,
					0.0012141079641878605,
					1
				],
				"metallicFactor":0,
				"roughnessFactor":0.4000000059604645
			}
		},
		{
			"doubleSided":true,
			"name":"SVGMat.004",
			"pbrMetallicRoughness":{
				"baseColorFactor":[
					0.004776953253895044,
					0.33716362714767456,
					0.09758734703063965,
					1
				],
				"metallicFactor":0,
				"roughnessFactor":0.4000000059604645
			}
		},
		{
			"doubleSided":true,
			"name":"SVGMat.002",
			"pbrMetallicRoughness":{
				"baseColorFactor":[
					0.05448027700185776,
					0.2345505803823471,
					0.9046611785888672,
					1
				],
				"metallicFactor":0,
				"roughnessFactor":0.4000000059604645
			}
		}
	],
	"meshes":[
		{
			"name":"Curve",
			"primitives":[
				{
					"attributes":{
						"POSITION":0,
						"NORMAL":1,
						"TEXCOORD_0":2
					},
					"indices":3,
					"material":0
				}
			]
		},
		{
			"name":"Curve.002",
			"primitives":[
				{
					"attributes":{
						"POSITION":4,
						"NORMAL":5,
						"TEXCOORD_0":6
					},
					"indices":7,
					"material":1
				}
			]
		},
		{
			"name":"Curve.003",
			"primitives":[
				{
					"attributes":{
						"POSITION":8,
						"NORMAL":9,
						"TEXCOORD_0":10
					},
					"indices":11,
					"material":2
				}
			]
		},
		{
			"name":"Curve.001",
			"primitives":[
				{
					"attributes":{
						"POSITION":12,
						"NORMAL":13,
						"TEXCOORD_0":14
					},
					"indices":15,
					"material":3
				}
			]
		}
	],
	"accessors":[
		{
			"bufferView":0,
			"componentType":5126,
			"count":394,
			"max":[
				0.03006710484623909,
				0.0020000000949949026,
				-0.016422200947999954
			],
			"min":[
				0.0027601895853877068,
				-0.0020000000949949026,
				-0.033007290214300156
			],
			"type":"VEC3"
		},
		{
			"bufferView":1,
			"componentType":5126,
			"count":394,
			"type":"VEC3"
		},
		{
			"bufferView":2,
			"componentType":5126,
			"count":394,
			"type":"VEC2"
		},
		{
			"bufferView":3,
			"componentType":5123,
			"count":1164,
			"type":"SCALAR"
		},
		{
			"bufferView":4,
			"componentType":5126,
			"count":712,
			"max":[
				0.06667619198560715,
				0.002500000176951289,
				0.000500220456160605
			],
			"min":[
				0.037718504667282104,
				-0.002500000176951289,
				-0.01719789020717144
			],
			"type":"VEC3"
		},
		{
			"bufferView":5,
			"componentType":5126,
			"count":712,
			"type":"VEC3"
		},
		{
			"bufferView":6,
			"componentType":5126,
			"count":712,
			"type":"VEC2"
		},
		{
			"bufferView":7,
			"componentType":5123,
			"count":3588,
			"type":"SCALAR"
		},
		{
			"bufferView":8,
			"componentType":5126,
			"count":338,
			"max":[
				0.0682036280632019,
				0.0020000000949949026,
				-0.011061001569032669
			],
			"min":[
				0.03818503022193909,
				-0.0020000000949949026,
				-0.03298025578260422
			],
			"type":"VEC3"
		},
		{
			"bufferView":9,
			"componentType":5126,
			"count":338,
			"type":"VEC3"
		},
		{
			"bufferView":10,
			"componentType":5126,
			"count":338,
			"type":"VEC2"
		},
		{
			"bufferView":11,
			"componentType":5123,
			"count":996,
			"type":"SCALAR"
		},
		{
			"bufferView":12,
			"componentType":5126,
			"count":1188,
			"max":[
				0.03054744005203247,
				0.002500000176951289,
				0.0005002521793358028
			],
			"min":[
				-0.0005014495691284537,
				-0.002500000176951289,
				-0.022448506206274033
			],
			"type":"VEC3"
		},
		{
			"bufferView":13,
			"componentType":5126,
			"count":1188,
			"type":"VEC3"
		},
		{
			"bufferView":14,
			"componentType":5126,
			"count":1188,
			"type":"VEC2"
		},
		{
			"bufferView":15,
			"componentType":5123,
			"count":6036,
			"type":"SCALAR"
		}
	],
	"bufferViews":[
		{
			"buffer":0,
			"byteLength":4728,
			"byteOffset":0,
			"target":34962
		},
		{
			"buffer":0,
			"byteLength":4728,
			"byteOffset":4728,
			"target":34962
		},
		{
			"buffer":0,
			"byteLength":3152,
			"byteOffset":9456,
			"target":34962
		},
		{
			"buffer":0,
			"byteLength":2328,
			"byteOffset":12608,
			"target":34963
		},
		{
			"buffer":0,
			"byteLength":8544,
			"byteOffset":14936,
			"target":34962
		},
		{
			"buffer":0,
			"byteLength":8544,
			"byteOffset":23480,
			"target":34962
		},
		{
			"buffer":0,
			"byteLength":5696,
			"byteOffset":32024,
			"target":34962
		},
		{
			"buffer":0,
			"byteLength":7176,
			"byteOffset":37720,
			"target":34963
		},
		{
			"buffer":0,
			"byteLength":4056,
			"byteOffset":44896,
			"target":34962
		},
		{
			"buffer":0,
			"byteLength":4056,
			"byteOffset":48952,
			"target":34962
		},
		{
			"buffer":0,
			"byteLength":2704,
			"byteOffset":53008,
			"target":34962
		},
		{
			"buffer":0,
			"byteLength":1992,
			"byteOffset":55712,
			"target":34963
		},
		{
			"buffer":0,
			"byteLength":14256,
			"byteOffset":57704,
			"target":34962
		},
		{
			"buffer":0,
			"byteLength":14256,
			"byteOffset":71960,
			"target":34962
		},
		{
			"buffer":0,
			"byteLength":9504,
			"byteOffset":86216,
			"target":34962
		},
		{
			"buffer":0,
			"byteLength":12072,
			"byteOffset":95720,
			"target":34963
		}
	],
	"buffers":[
		{
			"byteLength":107792,
			"uri":"Gdsc.bin"
		}
	]
}
