{
	"asset":{
		"generator":"Khronos glTF Blender I/O v4.0.44",
		"version":"2.0"
	},
	"extensionsUsed":[
		"KHR_materials_emissive_strength"
	],
	"scene":0,
	"scenes":[
		{
			"name":"Scene",
			"nodes":[
				3
			]
		}
	],
	"nodes":[
		{
			"mesh":0,
			"name":"Base.002",
			"translation":[
				0,
				0.016319938004016876,
				0
			]
		},
		{
			"mesh":1,
			"name":"BaseBoolean",
			"scale":[
				0.9771231412887573,
				0.9771231412887573,
				0.9771231412887573
			],
			"translation":[
				0.00016280662384815514,
				0.023643240332603455,
				-2.1153515262994915e-05
			]
		},
		{
			"mesh":2,
			"name":"Core.001",
			"rotation":[
				0,
				-0.18189576268196106,
				0,
				0.9833179116249084
			],
			"translation":[
				0,
				0.20165109634399414,
				0
			]
		},
		{
			"children":[
				0,
				1,
				2
			],
			"name":"PlayStation 5",
			"scale":[
				1.0036025047302246,
				1.0036025047302246,
				1.0036025047302246
			]
		}
	],
	"materials":[
		{
			"doubleSided":true,
			"name":"Base",
			"pbrMetallicRoughness":{
				"baseColorFactor":[
					0,
					0,
					0,
					1
				],
				"metallicFactor":0,
				"roughnessFactor":0.5
			}
		},
		{
			"doubleSided":true,
			"name":"PS5Core.001",
			"pbrMetallicRoughness":{
				"baseColorFactor":[
					0,
					0,
					0,
					1
				],
				"metallicFactor":0,
				"roughnessFactor":0.145454540848732
			}
		},
		{
			"doubleSided":true,
			"emissiveFactor":[
				1,
				1,
				1
			],
			"extensions":{
				"KHR_materials_emissive_strength":{
					"emissiveStrength":150
				}
			},
			"name":"BlueLED.001",
			"pbrMetallicRoughness":{
				"baseColorFactor":[
					0,
					0,
					0,
					1
				]
			}
		},
		{
			"alphaMode":"BLEND",
			"doubleSided":true,
			"name":"GlassLED.001",
			"pbrMetallicRoughness":{}
		},
		{
			"doubleSided":true,
			"name":"Chrome.002",
			"pbrMetallicRoughness":{
				"baseColorFactor":[
					0.800000011920929,
					0.800000011920929,
					0.800000011920929,
					1
				],
				"roughnessFactor":0.5
			}
		},
		{
			"doubleSided":true,
			"name":"BluePlastic.001",
			"pbrMetallicRoughness":{
				"baseColorFactor":[
					0.05740797519683838,
					0.08762805163860321,
					0.8000000715255737,
					1
				],
				"metallicFactor":0
			}
		},
		{
			"doubleSided":true,
			"name":"Gold.002",
			"pbrMetallicRoughness":{
				"baseColorFactor":[
					0.8000000715255737,
					0.5450228452682495,
					0.2821958661079407,
					1
				],
				"roughnessFactor":0.5281690359115601
			}
		},
		{
			"doubleSided":true,
			"name":"Material.004",
			"pbrMetallicRoughness":{
				"baseColorFactor":[
					0,
					0,
					0,
					1
				],
				"metallicFactor":0,
				"roughnessFactor":0.5
			}
		},
		{
			"doubleSided":true,
			"name":"SidePanels.003",
			"pbrMetallicRoughness":{
				"metallicFactor":0
			}
		},
		{
			"doubleSided":true,
			"name":"Base.003",
			"pbrMetallicRoughness":{
				"baseColorFactor":[
					0,
					0,
					0,
					1
				],
				"metallicFactor":0,
				"roughnessFactor":0.5
			}
		},
		{
			"doubleSided":true,
			"name":"SidePanels.002",
			"pbrMetallicRoughness":{
				"metallicFactor":0
			}
		},
		{
			"doubleSided":true,
			"name":"SidePanels",
			"pbrMetallicRoughness":{
				"metallicFactor":0
			}
		},
		{
			"doubleSided":true,
			"name":"PS5Core",
			"pbrMetallicRoughness":{
				"baseColorFactor":[
					0,
					0,
					0,
					1
				],
				"metallicFactor":0,
				"roughnessFactor":0.145454540848732
			}
		}
	],
	"meshes":[
		{
			"name":"Cylinder.002",
			"primitives":[
				{
					"attributes":{
						"POSITION":0,
						"NORMAL":1,
						"TEXCOORD_0":2
					},
					"indices":3,
					"material":0
				}
			]
		},
		{
			"name":"Plane.001",
			"primitives":[
				{
					"attributes":{
						"POSITION":4,
						"NORMAL":5,
						"TEXCOORD_0":6
					},
					"indices":7
				}
			]
		},
		{
			"name":"MainFrame.004",
			"primitives":[
				{
					"attributes":{
						"POSITION":8,
						"NORMAL":9,
						"TEXCOORD_0":10
					},
					"indices":11,
					"material":1
				},
				{
					"attributes":{
						"POSITION":12,
						"NORMAL":13,
						"TEXCOORD_0":14
					},
					"indices":15,
					"material":2
				},
				{
					"attributes":{
						"POSITION":16,
						"NORMAL":17,
						"TEXCOORD_0":18
					},
					"indices":19,
					"material":3
				},
				{
					"attributes":{
						"POSITION":20,
						"NORMAL":21,
						"TEXCOORD_0":22
					},
					"indices":23,
					"material":4
				},
				{
					"attributes":{
						"POSITION":24,
						"NORMAL":25,
						"TEXCOORD_0":26
					},
					"indices":27,
					"material":5
				},
				{
					"attributes":{
						"POSITION":28,
						"NORMAL":29,
						"TEXCOORD_0":30
					},
					"indices":31,
					"material":6
				},
				{
					"attributes":{
						"POSITION":32,
						"NORMAL":33,
						"TEXCOORD_0":34
					},
					"indices":35,
					"material":7
				},
				{
					"attributes":{
						"POSITION":36,
						"NORMAL":37,
						"TEXCOORD_0":38
					},
					"indices":39,
					"material":0
				},
				{
					"attributes":{
						"POSITION":40,
						"NORMAL":41,
						"TEXCOORD_0":42
					},
					"indices":43,
					"material":8
				},
				{
					"attributes":{
						"POSITION":44,
						"NORMAL":45,
						"TEXCOORD_0":46
					},
					"indices":47,
					"material":9
				},
				{
					"attributes":{
						"POSITION":48,
						"NORMAL":49,
						"TEXCOORD_0":50
					},
					"indices":51,
					"material":10
				},
				{
					"attributes":{
						"POSITION":52,
						"NORMAL":53,
						"TEXCOORD_0":54
					},
					"indices":55,
					"material":11
				},
				{
					"attributes":{
						"POSITION":56,
						"NORMAL":57,
						"TEXCOORD_0":58
					},
					"indices":59,
					"material":12
				}
			]
		}
	],
	"accessors":[
		{
			"bufferView":0,
			"componentType":5126,
			"count":400,
			"max":[
				0.0708511546254158,
				0.012983428314328194,
				0.07085111737251282
			],
			"min":[
				-0.07085113972425461,
				-0.01699257083237171,
				-0.07085117697715759
			],
			"type":"VEC3"
		},
		{
			"bufferView":1,
			"componentType":5126,
			"count":400,
			"type":"VEC3"
		},
		{
			"bufferView":2,
			"componentType":5126,
			"count":400,
			"type":"VEC2"
		},
		{
			"bufferView":3,
			"componentType":5123,
			"count":1524,
			"type":"SCALAR"
		},
		{
			"bufferView":4,
			"componentType":5126,
			"count":130,
			"max":[
				0.14658164978027344,
				0.017004698514938354,
				0.04577063024044037
			],
			"min":[
				-0.1469031125307083,
				-0.013944089412689209,
				-0.056490156799554825
			],
			"type":"VEC3"
		},
		{
			"bufferView":5,
			"componentType":5126,
			"count":130,
			"type":"VEC3"
		},
		{
			"bufferView":6,
			"componentType":5126,
			"count":130,
			"type":"VEC2"
		},
		{
			"bufferView":7,
			"componentType":5123,
			"count":480,
			"type":"SCALAR"
		},
		{
			"bufferView":8,
			"componentType":5126,
			"count":3270,
			"max":[
				0.14271369576454163,
				0.16368654370307922,
				0.025502987205982208
			],
			"min":[
				-0.13565202057361603,
				-0.1888769119977951,
				-0.025502987205982208
			],
			"type":"VEC3"
		},
		{
			"bufferView":9,
			"componentType":5126,
			"count":3270,
			"type":"VEC3"
		},
		{
			"bufferView":10,
			"componentType":5126,
			"count":3270,
			"type":"VEC2"
		},
		{
			"bufferView":11,
			"componentType":5123,
			"count":12816,
			"type":"SCALAR"
		},
		{
			"bufferView":12,
			"componentType":5126,
			"count":240,
			"max":[
				0.14084011316299438,
				0.16245196759700775,
				0.025172483175992966
			],
			"min":[
				-0.13441728055477142,
				-0.1876422017812729,
				-0.025172483175992966
			],
			"type":"VEC3"
		},
		{
			"bufferView":13,
			"componentType":5126,
			"count":240,
			"type":"VEC3"
		},
		{
			"bufferView":14,
			"componentType":5126,
			"count":240,
			"type":"VEC2"
		},
		{
			"bufferView":15,
			"componentType":5123,
			"count":720,
			"type":"SCALAR"
		},
		{
			"bufferView":16,
			"componentType":5126,
			"count":916,
			"max":[
				0.14084000885486603,
				0.16245189309120178,
				0.02549678273499012
			],
			"min":[
				-0.13441738486289978,
				-0.18764227628707886,
				-0.02549678273499012
			],
			"type":"VEC3"
		},
		{
			"bufferView":17,
			"componentType":5126,
			"count":916,
			"type":"VEC3"
		},
		{
			"bufferView":18,
			"componentType":5126,
			"count":916,
			"type":"VEC2"
		},
		{
			"bufferView":19,
			"componentType":5123,
			"count":3864,
			"type":"SCALAR"
		},
		{
			"bufferView":20,
			"componentType":5126,
			"count":1056,
			"max":[
				0.1420505791902542,
				-0.012839430011808872,
				0.0027312582824379206
			],
			"min":[
				0.13269224762916565,
				-0.04203193634748459,
				-0.0027266403194516897
			],
			"type":"VEC3"
		},
		{
			"bufferView":21,
			"componentType":5126,
			"count":1056,
			"type":"VEC3"
		},
		{
			"bufferView":22,
			"componentType":5126,
			"count":1056,
			"type":"VEC2"
		},
		{
			"bufferView":23,
			"componentType":5123,
			"count":3516,
			"type":"SCALAR"
		},
		{
			"bufferView":24,
			"componentType":5126,
			"count":98,
			"max":[
				0.14094340801239014,
				-0.013387590646743774,
				-0.0003639833303168416
			],
			"min":[
				0.13269224762916565,
				-0.025622215121984482,
				-0.0021232781000435352
			],
			"type":"VEC3"
		},
		{
			"bufferView":25,
			"componentType":5126,
			"count":98,
			"type":"VEC3"
		},
		{
			"bufferView":26,
			"componentType":5126,
			"count":98,
			"type":"VEC2"
		},
		{
			"bufferView":27,
			"componentType":5123,
			"count":390,
			"type":"SCALAR"
		},
		{
			"bufferView":28,
			"componentType":5126,
			"count":656,
			"max":[
				0.14149141311645508,
				-0.014887654222548008,
				0.001492359209805727
			],
			"min":[
				0.13269224762916565,
				-0.04116116836667061,
				-0.0014828884741291404
			],
			"type":"VEC3"
		},
		{
			"bufferView":29,
			"componentType":5126,
			"count":656,
			"type":"VEC3"
		},
		{
			"bufferView":30,
			"componentType":5126,
			"count":656,
			"type":"VEC2"
		},
		{
			"bufferView":31,
			"componentType":5123,
			"count":1614,
			"type":"SCALAR"
		},
		{
			"bufferView":32,
			"componentType":5126,
			"count":100,
			"max":[
				0.1414419412612915,
				-0.034787341952323914,
				0.0002834752085618675
			],
			"min":[
				0.13537143170833588,
				-0.04112347960472107,
				-0.00027400447288528085
			],
			"type":"VEC3"
		},
		{
			"bufferView":33,
			"componentType":5126,
			"count":100,
			"type":"VEC3"
		},
		{
			"bufferView":34,
			"componentType":5126,
			"count":100,
			"type":"VEC2"
		},
		{
			"bufferView":35,
			"componentType":5123,
			"count":354,
			"type":"SCALAR"
		},
		{
			"bufferView":36,
			"componentType":5126,
			"count":10316,
			"max":[
				0.14147977530956268,
				0.1610071212053299,
				0.040504612028598785
			],
			"min":[
				-0.13332656025886536,
				-0.187906876206398,
				-0.04050460830330849
			],
			"type":"VEC3"
		},
		{
			"bufferView":37,
			"componentType":5126,
			"count":10316,
			"type":"VEC3"
		},
		{
			"bufferView":38,
			"componentType":5126,
			"count":10316,
			"type":"VEC2"
		},
		{
			"bufferView":39,
			"componentType":5123,
			"count":31200,
			"type":"SCALAR"
		},
		{
			"bufferView":40,
			"componentType":5126,
			"count":1895,
			"max":[
				0.1468888819217682,
				0.1718548983335495,
				-0.016161393374204636
			],
			"min":[
				-0.14699769020080566,
				-0.19123147428035736,
				-0.05364128574728966
			],
			"type":"VEC3"
		},
		{
			"bufferView":41,
			"componentType":5126,
			"count":1895,
			"type":"VEC3"
		},
		{
			"bufferView":42,
			"componentType":5126,
			"count":1895,
			"type":"VEC2"
		},
		{
			"bufferView":43,
			"componentType":5123,
			"count":9414,
			"type":"SCALAR"
		},
		{
			"bufferView":44,
			"componentType":5126,
			"count":102,
			"max":[
				0.1410137414932251,
				-0.04855138063430786,
				-0.029638215899467468
			],
			"min":[
				0.13805434107780457,
				-0.16219554841518402,
				-0.03245672956109047
			],
			"type":"VEC3"
		},
		{
			"bufferView":45,
			"componentType":5126,
			"count":102,
			"type":"VEC3"
		},
		{
			"bufferView":46,
			"componentType":5126,
			"count":102,
			"type":"VEC2"
		},
		{
			"bufferView":47,
			"componentType":5123,
			"count":372,
			"type":"SCALAR"
		},
		{
			"bufferView":48,
			"componentType":5126,
			"count":6591,
			"max":[
				0.14708232879638672,
				0.17203037440776825,
				0.043756041675806046
			],
			"min":[
				-0.1469651162624359,
				-0.19095270335674286,
				0.016475725919008255
			],
			"type":"VEC3"
		},
		{
			"bufferView":49,
			"componentType":5126,
			"count":6591,
			"type":"VEC3"
		},
		{
			"bufferView":50,
			"componentType":5126,
			"count":6591,
			"type":"VEC2"
		},
		{
			"bufferView":51,
			"componentType":5123,
			"count":31140,
			"type":"SCALAR"
		},
		{
			"bufferView":52,
			"componentType":5126,
			"count":1456,
			"max":[
				0.1422988474369049,
				0.1651989370584488,
				-0.03532610461115837
			],
			"min":[
				0.13816791772842407,
				0.1452270895242691,
				-0.04119814187288284
			],
			"type":"VEC3"
		},
		{
			"bufferView":53,
			"componentType":5126,
			"count":1456,
			"type":"VEC3"
		},
		{
			"bufferView":54,
			"componentType":5126,
			"count":1456,
			"type":"VEC2"
		},
		{
			"bufferView":55,
			"componentType":5123,
			"count":4269,
			"type":"SCALAR"
		},
		{
			"bufferView":56,
			"componentType":5126,
			"count":192,
			"max":[
				0.12379326671361923,
				0.14077262580394745,
				0.026609303429722786
			],
			"min":[
				-0.1173710972070694,
				-0.166377991437912,
				0.011812569573521614
			],
			"type":"VEC3"
		},
		{
			"bufferView":57,
			"componentType":5126,
			"count":192,
			"type":"VEC3"
		},
		{
			"bufferView":58,
			"componentType":5126,
			"count":192,
			"type":"VEC2"
		},
		{
			"bufferView":59,
			"componentType":5123,
			"count":576,
			"type":"SCALAR"
		}
	],
	"bufferViews":[
		{
			"buffer":0,
			"byteLength":4800,
			"byteOffset":0,
			"target":34962
		},
		{
			"buffer":0,
			"byteLength":4800,
			"byteOffset":4800,
			"target":34962
		},
		{
			"buffer":0,
			"byteLength":3200,
			"byteOffset":9600,
			"target":34962
		},
		{
			"buffer":0,
			"byteLength":3048,
			"byteOffset":12800,
			"target":34963
		},
		{
			"buffer":0,
			"byteLength":1560,
			"byteOffset":15848,
			"target":34962
		},
		{
			"buffer":0,
			"byteLength":1560,
			"byteOffset":17408,
			"target":34962
		},
		{
			"buffer":0,
			"byteLength":1040,
			"byteOffset":18968,
			"target":34962
		},
		{
			"buffer":0,
			"byteLength":960,
			"byteOffset":20008,
			"target":34963
		},
		{
			"buffer":0,
			"byteLength":39240,
			"byteOffset":20968,
			"target":34962
		},
		{
			"buffer":0,
			"byteLength":39240,
			"byteOffset":60208,
			"target":34962
		},
		{
			"buffer":0,
			"byteLength":26160,
			"byteOffset":99448,
			"target":34962
		},
		{
			"buffer":0,
			"byteLength":25632,
			"byteOffset":125608,
			"target":34963
		},
		{
			"buffer":0,
			"byteLength":2880,
			"byteOffset":151240,
			"target":34962
		},
		{
			"buffer":0,
			"byteLength":2880,
			"byteOffset":154120,
			"target":34962
		},
		{
			"buffer":0,
			"byteLength":1920,
			"byteOffset":157000,
			"target":34962
		},
		{
			"buffer":0,
			"byteLength":1440,
			"byteOffset":158920,
			"target":34963
		},
		{
			"buffer":0,
			"byteLength":10992,
			"byteOffset":160360,
			"target":34962
		},
		{
			"buffer":0,
			"byteLength":10992,
			"byteOffset":171352,
			"target":34962
		},
		{
			"buffer":0,
			"byteLength":7328,
			"byteOffset":182344,
			"target":34962
		},
		{
			"buffer":0,
			"byteLength":7728,
			"byteOffset":189672,
			"target":34963
		},
		{
			"buffer":0,
			"byteLength":12672,
			"byteOffset":197400,
			"target":34962
		},
		{
			"buffer":0,
			"byteLength":12672,
			"byteOffset":210072,
			"target":34962
		},
		{
			"buffer":0,
			"byteLength":8448,
			"byteOffset":222744,
			"target":34962
		},
		{
			"buffer":0,
			"byteLength":7032,
			"byteOffset":231192,
			"target":34963
		},
		{
			"buffer":0,
			"byteLength":1176,
			"byteOffset":238224,
			"target":34962
		},
		{
			"buffer":0,
			"byteLength":1176,
			"byteOffset":239400,
			"target":34962
		},
		{
			"buffer":0,
			"byteLength":784,
			"byteOffset":240576,
			"target":34962
		},
		{
			"buffer":0,
			"byteLength":780,
			"byteOffset":241360,
			"target":34963
		},
		{
			"buffer":0,
			"byteLength":7872,
			"byteOffset":242140,
			"target":34962
		},
		{
			"buffer":0,
			"byteLength":7872,
			"byteOffset":250012,
			"target":34962
		},
		{
			"buffer":0,
			"byteLength":5248,
			"byteOffset":257884,
			"target":34962
		},
		{
			"buffer":0,
			"byteLength":3228,
			"byteOffset":263132,
			"target":34963
		},
		{
			"buffer":0,
			"byteLength":1200,
			"byteOffset":266360,
			"target":34962
		},
		{
			"buffer":0,
			"byteLength":1200,
			"byteOffset":267560,
			"target":34962
		},
		{
			"buffer":0,
			"byteLength":800,
			"byteOffset":268760,
			"target":34962
		},
		{
			"buffer":0,
			"byteLength":708,
			"byteOffset":269560,
			"target":34963
		},
		{
			"buffer":0,
			"byteLength":123792,
			"byteOffset":270268,
			"target":34962
		},
		{
			"buffer":0,
			"byteLength":123792,
			"byteOffset":394060,
			"target":34962
		},
		{
			"buffer":0,
			"byteLength":82528,
			"byteOffset":517852,
			"target":34962
		},
		{
			"buffer":0,
			"byteLength":62400,
			"byteOffset":600380,
			"target":34963
		},
		{
			"buffer":0,
			"byteLength":22740,
			"byteOffset":662780,
			"target":34962
		},
		{
			"buffer":0,
			"byteLength":22740,
			"byteOffset":685520,
			"target":34962
		},
		{
			"buffer":0,
			"byteLength":15160,
			"byteOffset":708260,
			"target":34962
		},
		{
			"buffer":0,
			"byteLength":18828,
			"byteOffset":723420,
			"target":34963
		},
		{
			"buffer":0,
			"byteLength":1224,
			"byteOffset":742248,
			"target":34962
		},
		{
			"buffer":0,
			"byteLength":1224,
			"byteOffset":743472,
			"target":34962
		},
		{
			"buffer":0,
			"byteLength":816,
			"byteOffset":744696,
			"target":34962
		},
		{
			"buffer":0,
			"byteLength":744,
			"byteOffset":745512,
			"target":34963
		},
		{
			"buffer":0,
			"byteLength":79092,
			"byteOffset":746256,
			"target":34962
		},
		{
			"buffer":0,
			"byteLength":79092,
			"byteOffset":825348,
			"target":34962
		},
		{
			"buffer":0,
			"byteLength":52728,
			"byteOffset":904440,
			"target":34962
		},
		{
			"buffer":0,
			"byteLength":62280,
			"byteOffset":957168,
			"target":34963
		},
		{
			"buffer":0,
			"byteLength":17472,
			"byteOffset":1019448,
			"target":34962
		},
		{
			"buffer":0,
			"byteLength":17472,
			"byteOffset":1036920,
			"target":34962
		},
		{
			"buffer":0,
			"byteLength":11648,
			"byteOffset":1054392,
			"target":34962
		},
		{
			"buffer":0,
			"byteLength":8538,
			"byteOffset":1066040,
			"target":34963
		},
		{
			"buffer":0,
			"byteLength":2304,
			"byteOffset":1074580,
			"target":34962
		},
		{
			"buffer":0,
			"byteLength":2304,
			"byteOffset":1076884,
			"target":34962
		},
		{
			"buffer":0,
			"byteLength":1536,
			"byteOffset":1079188,
			"target":34962
		},
		{
			"buffer":0,
			"byteLength":1152,
			"byteOffset":1080724,
			"target":34963
		}
	],
	"buffers":[
		{
			"byteLength":1081876,
			"uri":"ps5.bin"
		}
	]
}
