{
	"asset":{
		"generator":"Khronos glTF Blender I/O v4.0.44",
		"version":"2.0"
	},
	"scene":0,
	"scenes":[
		{
			"extras":{
				"assets used":{
					"87ead7ec-c6b8-4482-b53c-6dd255fd9d10":{
						"thumbnail":"thumbnail_14010d5b-d4af-43f0-95a2-6222264a7f36.png.512x512_q85_crop-%2C.png.webp",
						"thumbnail_small":"thumbnail_14010d5b-d4af-43f0-95a2-6222264a7f36.png.256x256_q85_crop-%2C.png.webp",
						"downloaded":0,
						"bbox_min":[
							10000000.0,
							10000000.0,
							10000000.0
						],
						"bbox_max":[
							-10000000.0,
							-10000000.0,
							-10000000.0
						],
						"pk":71667,
						"url":"https://www.blenderkit.com/api/v1/assets/1bbf0aab-2d38-4a1b-8672-d1c7f2b28f95/",
						"id":"1bbf0aab-2d38-4a1b-8672-d1c7f2b28f95",
						"assetBaseId":"87ead7ec-c6b8-4482-b53c-6dd255fd9d10",
						"versionNumber":1,
						"author":{
							"id":"731465",
							"firstName":"Alexey",
							"lastName":"Brodsky",
							"gravatarHash":"6f73818d56b29c02ae823fcdd64d6dd2",
							"avatar128":"/avatar-redirect/cbaaa1a9-27f5-46a7-a1c5-128187589157/128/",
							"aboutMe":"Passionate 3D artist and animator. Make artworks, motion design and more. Looking for productive collaborations.",
							"aboutMeUrl":"https://www.behance.net/alexey-brodsky",
							"fullName":"Alexey Brodsky"
						},
						"name":"Abstract Canvas",
						"displayName":"Abstract Canvas (GN)",
						"description":"Particles based castomised canvas, that you can create variouse abstract colorful effects that made by using GN simulation with particles and turbulence. You can change form of the canvas, change parametres and kind of turbulence, and make your one abstract works with it. If you put some canvases like this one up to other, change it's starting delay and choose different colors you can make very cool effects. Enjoy!",
						"assetType":"model",
						"category":"motion-design",
						"adult":false,
						"isFree":true,
						"tags":[
							"GeometryNodes",
							"Simulation",
							"Abstract",
							"Motion Graphics",
							"Procedural",
							"Generator"
						],
						"license":"cc_zero",
						"sourceAppName":"blender",
						"sourceAppVersion":"4.0.0",
						"addonVersion":"3.8.2",
						"created":"2023-11-27T15:58:31.864648+01:00",
						"lastUserInteraction":"2023-11-27T15:58:46.143757+01:00",
						"verificationStatus":"validated",
						"isPrivate":false,
						"files":[
							{
								"fileType":"blend",
								"downloadUrl":"https://www.blenderkit.com/api/v1/downloads/274990/",
								"fileThumbnail":null,
								"fileThumbnailLarge":null,
								"created":"2023-11-27T15:58:45.866132+01:00",
								"modified":"2023-11-27T15:58:45.866152+01:00",
								"mimeType":null,
								"resolution":null,
								"url":"https://public.blenderkit.com/public-assets/assets/1bbf0aab2d384a1b8672d1c7f2b28f95/files/blend_da1f031d-5830-4f39-bc6a-7250eddd9b04.blend",
								"file_name":"blend_da1f031d-5830-4f39-bc6a-7250eddd9b04.blend"
							},
							{
								"fileType":"thumbnail",
								"downloadUrl":"https://www.blenderkit.com/api/v1/downloads/274989/",
								"fileThumbnail":"https://public.blenderkit.com/thumbnails/assets/1bbf0aab2d384a1b8672d1c7f2b28f95/files/thumbnail_14010d5b-d4af-43f0-95a2-6222264a7f36.png.96x96_q85_crop-%2C.png",
								"fileThumbnailLarge":"https://public.blenderkit.com/thumbnails/assets/1bbf0aab2d384a1b8672d1c7f2b28f95/files/thumbnail_14010d5b-d4af-43f0-95a2-6222264a7f36.png.1024x1024_q85_crop-%2C.png",
								"created":"2023-11-27T15:58:43.593626+01:00",
								"modified":"2023-11-27T15:58:43.593650+01:00",
								"mimeType":null,
								"resolution":null
							}
						],
						"filesSize":116,
						"thumbnailSmallUrl":"https://public.blenderkit.com/thumbnails/assets/1bbf0aab2d384a1b8672d1c7f2b28f95/files/thumbnail_14010d5b-d4af-43f0-95a2-6222264a7f36.png.256x256_q85_crop-%2C.png",
						"thumbnailMiddleUrl":"https://public.blenderkit.com/thumbnails/assets/1bbf0aab2d384a1b8672d1c7f2b28f95/files/thumbnail_14010d5b-d4af-43f0-95a2-6222264a7f36.png.512x512_q85_crop-%2C.png",
						"thumbnailLargeUrl":"https://public.blenderkit.com/thumbnails/assets/1bbf0aab2d384a1b8672d1c7f2b28f95/files/thumbnail_14010d5b-d4af-43f0-95a2-6222264a7f36.png.1024x1024_q85_crop-%2C.png",
						"thumbnailXlargeUrl":"https://public.blenderkit.com/thumbnails/assets/1bbf0aab2d384a1b8672d1c7f2b28f95/files/thumbnail_14010d5b-d4af-43f0-95a2-6222264a7f36.png.2048x2048_q85_crop-%2C.png",
						"thumbnailSmallUrlNonsquared":"https://public.blenderkit.com/thumbnails/assets/1bbf0aab2d384a1b8672d1c7f2b28f95/files/thumbnail_14010d5b-d4af-43f0-95a2-6222264a7f36.png.256x256_q85.png",
						"thumbnailMiddleUrlNonsquared":"https://public.blenderkit.com/thumbnails/assets/1bbf0aab2d384a1b8672d1c7f2b28f95/files/thumbnail_14010d5b-d4af-43f0-95a2-6222264a7f36.png.512x512_q85.png",
						"thumbnailLargeUrlNonsquared":"https://public.blenderkit.com/thumbnails/assets/1bbf0aab2d384a1b8672d1c7f2b28f95/files/thumbnail_14010d5b-d4af-43f0-95a2-6222264a7f36.png.1024x1024_q85.png",
						"thumbnailXlargeUrlNonsquared":"https://public.blenderkit.com/thumbnails/assets/1bbf0aab2d384a1b8672d1c7f2b28f95/files/thumbnail_14010d5b-d4af-43f0-95a2-6222264a7f36.png.2048x2048_q85.png",
						"thumbnailSmallUrlWebp":"https://public.blenderkit.com/thumbnails/assets/1bbf0aab2d384a1b8672d1c7f2b28f95/files/thumbnail_14010d5b-d4af-43f0-95a2-6222264a7f36.png.256x256_q85_crop-%2C.png.webp?webp_generated=1701180667",
						"thumbnailMiddleUrlWebp":"https://public.blenderkit.com/thumbnails/assets/1bbf0aab2d384a1b8672d1c7f2b28f95/files/thumbnail_14010d5b-d4af-43f0-95a2-6222264a7f36.png.512x512_q85_crop-%2C.png.webp?webp_generated=1701180667",
						"thumbnailLargeUrlWebp":"https://public.blenderkit.com/thumbnails/assets/1bbf0aab2d384a1b8672d1c7f2b28f95/files/thumbnail_14010d5b-d4af-43f0-95a2-6222264a7f36.png.1024x1024_q85_crop-%2C.png.webp?webp_generated=1701180667",
						"thumbnailXlargeUrlWebp":"https://public.blenderkit.com/thumbnails/assets/1bbf0aab2d384a1b8672d1c7f2b28f95/files/thumbnail_14010d5b-d4af-43f0-95a2-6222264a7f36.png.2048x2048_q85_crop-%2C.png.webp?webp_generated=1701180667",
						"thumbnailSmallUrlNonsquaredWebp":"https://public.blenderkit.com/thumbnails/assets/1bbf0aab2d384a1b8672d1c7f2b28f95/files/thumbnail_14010d5b-d4af-43f0-95a2-6222264a7f36.png.256x256_q85.png.webp?webp_generated=1701180667",
						"thumbnailMiddleUrlNonsquaredWebp":"https://public.blenderkit.com/thumbnails/assets/1bbf0aab2d384a1b8672d1c7f2b28f95/files/thumbnail_14010d5b-d4af-43f0-95a2-6222264a7f36.png.512x512_q85.png.webp?webp_generated=1701180667",
						"thumbnailLargeUrlNonsquaredWebp":"https://public.blenderkit.com/thumbnails/assets/1bbf0aab2d384a1b8672d1c7f2b28f95/files/thumbnail_14010d5b-d4af-43f0-95a2-6222264a7f36.png.1024x1024_q85.png.webp?webp_generated=1701180667",
						"thumbnailXlargeUrlNonsquaredWebp":"https://public.blenderkit.com/thumbnails/assets/1bbf0aab2d384a1b8672d1c7f2b28f95/files/thumbnail_14010d5b-d4af-43f0-95a2-6222264a7f36.png.2048x2048_q85.png.webp?webp_generated=1701180667",
						"showMarketingLabels":true,
						"webpGeneratedTimestamp":1701180667,
						"score":800.0,
						"ratingsMedian":{
							"virtualPrice":null,
							"bookmarks":1.0,
							"workingHours":10.0,
							"quality":8.0,
							"competition-2022-votes":null,
							"assetCount":null
						},
						"ratingsAverage":{
							"virtualPrice":null,
							"bookmarks":1.0,
							"workingHours":10.0,
							"quality":8.0,
							"competition-2022-votes":null,
							"assetCount":null
						},
						"ratingsCount":{
							"virtualPrice":0,
							"bookmarks":22,
							"workingHours":1,
							"quality":1,
							"competition-2022-votes":0,
							"assetCount":0
						},
						"ratingsSum":{
							"virtualPrice":null,
							"bookmarks":22.0,
							"workingHours":10.0,
							"quality":8.0,
							"competition-2022-votes":null,
							"assetCount":null
						},
						"lastBlendUpload":"2023-11-27T14:58:45.866132+00:00",
						"lastGltfUpload":null,
						"lastZipFileUpload":null,
						"lastThumbnailUpload":"2023-11-27T14:58:43.593626+00:00",
						"lastVideoUpload":null,
						"lastResolutionUpload":null,
						"dictParameters":{
							"faceCount":6,
							"productionLevel":"template",
							"procedural":true,
							"modelStyle":"3d_graphics",
							"condition":"new",
							"designer":"Alexey Brodsky",
							"manufacturer":"Alexey Brodsky",
							"designCollection":"Simulations",
							"shaders":[
								"principled"
							],
							"uv":true,
							"engines":[
								"cycles"
							],
							"modifiers":[
								"nodes"
							],
							"materials":[
								"Particles01",
								"Particles02",
								"Particles02.001"
							],
							"rig":false,
							"simulation":false,
							"dimensionX":-20000000.0,
							"dimensionY":-20000000.0,
							"dimensionZ":-20000000.0,
							"boundBoxMinX":10000000.0,
							"boundBoxMinY":10000000.0,
							"boundBoxMinZ":10000000.0,
							"boundBoxMaxX":-10000000.0,
							"boundBoxMaxY":-10000000.0,
							"boundBoxMaxZ":-10000000.0,
							"faceCountRender":6,
							"meshPolyType":"quad",
							"manifold":true,
							"objectCount":1,
							"nodeCount":14,
							"textureCount":0,
							"megapixels":0,
							"textAIcheckedDate":"2023-11-28",
							"nodevember":"day-29-30",
							"imageAltTextGen4v":"Vibrant red and blue particle simulation for abstract motion design using Blender 3D's GN feature."
						},
						"canDownload":true,
						"canDownloadError":true,
						"available_resolutions":[],
						"max_resolution":0,
						"tooltip_data":{
							"aname":"Abstract Canvas (GN)",
							"author_text":"by Alexey Brodsky",
							"quality":"8"
						},
						"resolution":"resolution_2K"
					}
				},
				"uuid":"a52c6e3a-5af9-4a39-9b89-582145cb522f"
			},
			"name":"Scene",
			"nodes":[
				0
			]
		}
	],
	"nodes":[
		{
			"extras":{
				"blenderkit":{
					"category":4,
					"subcategory":2,
					"license":1,
					"is_free":1,
					"name":"Abstract Canvas",
					"name_changed":1,
					"name_old":"Abstract Canvas",
					"description":"Particles based castomised canvas, that you can create variouse abstract colorful effects that made by using GN simulation with particles and turbulence. You can change form of the canvas, change parametres and kind of turbulence, and make your one abstract works with it. If you put some canvases like this one up to other, change it's starting delay and choose different colors you can make very cool effects. Enjoy!",
					"tags":"GeometryNodes, Simulation, Abstract, Motion Graphics, Procedural, Generator",
					"thumbnail":"//renders\\abstractP\\1.png",
					"has_thumbnail":1,
					"thumbnail_generating_state":"",
					"style":5,
					"production_level":1,
					"condition":1,
					"manufacturer":"Alexey Brodsky",
					"designer":"Alexey Brodsky",
					"design_collection":"Simulations",
					"work_hours":6.0,
					"texture_resolution_max":0,
					"texture_resolution_min":0,
					"uv":1,
					"texture_count":0,
					"total_megapixels":0,
					"node_count":14,
					"engine":0,
					"materials":"Particles01, Particles02, Particles02.001, ",
					"shaders":"principled, ",
					"dimensions":[
						-20000000.0,
						-20000000.0,
						-20000000.0
					],
					"bbox_min":[
						10000000.0,
						10000000.0,
						10000000.0
					],
					"bbox_max":[
						-10000000.0,
						-10000000.0,
						-10000000.0
					],
					"face_count":6,
					"face_count_render":6,
					"mesh_poly_type":0,
					"manifold":1,
					"modifiers":"nodes,",
					"object_count":1,
					"report":"",
					"upload_state":"",
					"asset_base_id":"87ead7ec-c6b8-4482-b53c-6dd255fd9d10",
					"id":"1bbf0aab-2d38-4a1b-8672-d1c7f2b28f95",
					"uploading":0
				},
				"asset_data":{
					"thumbnail":"thumbnail_14010d5b-d4af-43f0-95a2-6222264a7f36.png.512x512_q85_crop-%2C.png.webp",
					"thumbnail_small":"thumbnail_14010d5b-d4af-43f0-95a2-6222264a7f36.png.256x256_q85_crop-%2C.png.webp",
					"downloaded":0,
					"bbox_min":[
						10000000.0,
						10000000.0,
						10000000.0
					],
					"bbox_max":[
						-10000000.0,
						-10000000.0,
						-10000000.0
					],
					"pk":71667,
					"url":"https://www.blenderkit.com/api/v1/assets/1bbf0aab-2d38-4a1b-8672-d1c7f2b28f95/",
					"id":"1bbf0aab-2d38-4a1b-8672-d1c7f2b28f95",
					"assetBaseId":"87ead7ec-c6b8-4482-b53c-6dd255fd9d10",
					"versionNumber":1,
					"author":{
						"id":"731465",
						"firstName":"Alexey",
						"lastName":"Brodsky",
						"gravatarHash":"6f73818d56b29c02ae823fcdd64d6dd2",
						"avatar128":"/avatar-redirect/cbaaa1a9-27f5-46a7-a1c5-128187589157/128/",
						"aboutMe":"Passionate 3D artist and animator. Make artworks, motion design and more. Looking for productive collaborations.",
						"aboutMeUrl":"https://www.behance.net/alexey-brodsky",
						"fullName":"Alexey Brodsky"
					},
					"name":"Abstract Canvas",
					"displayName":"Abstract Canvas (GN)",
					"description":"Particles based castomised canvas, that you can create variouse abstract colorful effects that made by using GN simulation with particles and turbulence. You can change form of the canvas, change parametres and kind of turbulence, and make your one abstract works with it. If you put some canvases like this one up to other, change it's starting delay and choose different colors you can make very cool effects. Enjoy!",
					"assetType":"model",
					"category":"motion-design",
					"adult":false,
					"isFree":true,
					"tags":[
						"GeometryNodes",
						"Simulation",
						"Abstract",
						"Motion Graphics",
						"Procedural",
						"Generator"
					],
					"license":"cc_zero",
					"sourceAppName":"blender",
					"sourceAppVersion":"4.0.0",
					"addonVersion":"3.8.2",
					"created":"2023-11-27T15:58:31.864648+01:00",
					"lastUserInteraction":"2023-11-27T15:58:46.143757+01:00",
					"verificationStatus":"validated",
					"isPrivate":false,
					"files":[
						{
							"fileType":"blend",
							"downloadUrl":"https://www.blenderkit.com/api/v1/downloads/274990/",
							"fileThumbnail":null,
							"fileThumbnailLarge":null,
							"created":"2023-11-27T15:58:45.866132+01:00",
							"modified":"2023-11-27T15:58:45.866152+01:00",
							"mimeType":null,
							"resolution":null,
							"url":"https://public.blenderkit.com/public-assets/assets/1bbf0aab2d384a1b8672d1c7f2b28f95/files/blend_da1f031d-5830-4f39-bc6a-7250eddd9b04.blend",
							"file_name":"blend_da1f031d-5830-4f39-bc6a-7250eddd9b04.blend"
						},
						{
							"fileType":"thumbnail",
							"downloadUrl":"https://www.blenderkit.com/api/v1/downloads/274989/",
							"fileThumbnail":"https://public.blenderkit.com/thumbnails/assets/1bbf0aab2d384a1b8672d1c7f2b28f95/files/thumbnail_14010d5b-d4af-43f0-95a2-6222264a7f36.png.96x96_q85_crop-%2C.png",
							"fileThumbnailLarge":"https://public.blenderkit.com/thumbnails/assets/1bbf0aab2d384a1b8672d1c7f2b28f95/files/thumbnail_14010d5b-d4af-43f0-95a2-6222264a7f36.png.1024x1024_q85_crop-%2C.png",
							"created":"2023-11-27T15:58:43.593626+01:00",
							"modified":"2023-11-27T15:58:43.593650+01:00",
							"mimeType":null,
							"resolution":null
						}
					],
					"filesSize":116,
					"thumbnailSmallUrl":"https://public.blenderkit.com/thumbnails/assets/1bbf0aab2d384a1b8672d1c7f2b28f95/files/thumbnail_14010d5b-d4af-43f0-95a2-6222264a7f36.png.256x256_q85_crop-%2C.png",
					"thumbnailMiddleUrl":"https://public.blenderkit.com/thumbnails/assets/1bbf0aab2d384a1b8672d1c7f2b28f95/files/thumbnail_14010d5b-d4af-43f0-95a2-6222264a7f36.png.512x512_q85_crop-%2C.png",
					"thumbnailLargeUrl":"https://public.blenderkit.com/thumbnails/assets/1bbf0aab2d384a1b8672d1c7f2b28f95/files/thumbnail_14010d5b-d4af-43f0-95a2-6222264a7f36.png.1024x1024_q85_crop-%2C.png",
					"thumbnailXlargeUrl":"https://public.blenderkit.com/thumbnails/assets/1bbf0aab2d384a1b8672d1c7f2b28f95/files/thumbnail_14010d5b-d4af-43f0-95a2-6222264a7f36.png.2048x2048_q85_crop-%2C.png",
					"thumbnailSmallUrlNonsquared":"https://public.blenderkit.com/thumbnails/assets/1bbf0aab2d384a1b8672d1c7f2b28f95/files/thumbnail_14010d5b-d4af-43f0-95a2-6222264a7f36.png.256x256_q85.png",
					"thumbnailMiddleUrlNonsquared":"https://public.blenderkit.com/thumbnails/assets/1bbf0aab2d384a1b8672d1c7f2b28f95/files/thumbnail_14010d5b-d4af-43f0-95a2-6222264a7f36.png.512x512_q85.png",
					"thumbnailLargeUrlNonsquared":"https://public.blenderkit.com/thumbnails/assets/1bbf0aab2d384a1b8672d1c7f2b28f95/files/thumbnail_14010d5b-d4af-43f0-95a2-6222264a7f36.png.1024x1024_q85.png",
					"thumbnailXlargeUrlNonsquared":"https://public.blenderkit.com/thumbnails/assets/1bbf0aab2d384a1b8672d1c7f2b28f95/files/thumbnail_14010d5b-d4af-43f0-95a2-6222264a7f36.png.2048x2048_q85.png",
					"thumbnailSmallUrlWebp":"https://public.blenderkit.com/thumbnails/assets/1bbf0aab2d384a1b8672d1c7f2b28f95/files/thumbnail_14010d5b-d4af-43f0-95a2-6222264a7f36.png.256x256_q85_crop-%2C.png.webp?webp_generated=1701180667",
					"thumbnailMiddleUrlWebp":"https://public.blenderkit.com/thumbnails/assets/1bbf0aab2d384a1b8672d1c7f2b28f95/files/thumbnail_14010d5b-d4af-43f0-95a2-6222264a7f36.png.512x512_q85_crop-%2C.png.webp?webp_generated=1701180667",
					"thumbnailLargeUrlWebp":"https://public.blenderkit.com/thumbnails/assets/1bbf0aab2d384a1b8672d1c7f2b28f95/files/thumbnail_14010d5b-d4af-43f0-95a2-6222264a7f36.png.1024x1024_q85_crop-%2C.png.webp?webp_generated=1701180667",
					"thumbnailXlargeUrlWebp":"https://public.blenderkit.com/thumbnails/assets/1bbf0aab2d384a1b8672d1c7f2b28f95/files/thumbnail_14010d5b-d4af-43f0-95a2-6222264a7f36.png.2048x2048_q85_crop-%2C.png.webp?webp_generated=1701180667",
					"thumbnailSmallUrlNonsquaredWebp":"https://public.blenderkit.com/thumbnails/assets/1bbf0aab2d384a1b8672d1c7f2b28f95/files/thumbnail_14010d5b-d4af-43f0-95a2-6222264a7f36.png.256x256_q85.png.webp?webp_generated=1701180667",
					"thumbnailMiddleUrlNonsquaredWebp":"https://public.blenderkit.com/thumbnails/assets/1bbf0aab2d384a1b8672d1c7f2b28f95/files/thumbnail_14010d5b-d4af-43f0-95a2-6222264a7f36.png.512x512_q85.png.webp?webp_generated=1701180667",
					"thumbnailLargeUrlNonsquaredWebp":"https://public.blenderkit.com/thumbnails/assets/1bbf0aab2d384a1b8672d1c7f2b28f95/files/thumbnail_14010d5b-d4af-43f0-95a2-6222264a7f36.png.1024x1024_q85.png.webp?webp_generated=1701180667",
					"thumbnailXlargeUrlNonsquaredWebp":"https://public.blenderkit.com/thumbnails/assets/1bbf0aab2d384a1b8672d1c7f2b28f95/files/thumbnail_14010d5b-d4af-43f0-95a2-6222264a7f36.png.2048x2048_q85.png.webp?webp_generated=1701180667",
					"showMarketingLabels":true,
					"webpGeneratedTimestamp":1701180667,
					"score":800.0,
					"ratingsMedian":{
						"virtualPrice":null,
						"bookmarks":1.0,
						"workingHours":10.0,
						"quality":8.0,
						"competition-2022-votes":null,
						"assetCount":null
					},
					"ratingsAverage":{
						"virtualPrice":null,
						"bookmarks":1.0,
						"workingHours":10.0,
						"quality":8.0,
						"competition-2022-votes":null,
						"assetCount":null
					},
					"ratingsCount":{
						"virtualPrice":0,
						"bookmarks":22,
						"workingHours":1,
						"quality":1,
						"competition-2022-votes":0,
						"assetCount":0
					},
					"ratingsSum":{
						"virtualPrice":null,
						"bookmarks":22.0,
						"workingHours":10.0,
						"quality":8.0,
						"competition-2022-votes":null,
						"assetCount":null
					},
					"lastBlendUpload":"2023-11-27T14:58:45.866132+00:00",
					"lastGltfUpload":null,
					"lastZipFileUpload":null,
					"lastThumbnailUpload":"2023-11-27T14:58:43.593626+00:00",
					"lastVideoUpload":null,
					"lastResolutionUpload":null,
					"dictParameters":{
						"faceCount":6,
						"productionLevel":"template",
						"procedural":true,
						"modelStyle":"3d_graphics",
						"condition":"new",
						"designer":"Alexey Brodsky",
						"manufacturer":"Alexey Brodsky",
						"designCollection":"Simulations",
						"shaders":[
							"principled"
						],
						"uv":true,
						"engines":[
							"cycles"
						],
						"modifiers":[
							"nodes"
						],
						"materials":[
							"Particles01",
							"Particles02",
							"Particles02.001"
						],
						"rig":false,
						"simulation":false,
						"dimensionX":-20000000.0,
						"dimensionY":-20000000.0,
						"dimensionZ":-20000000.0,
						"boundBoxMinX":10000000.0,
						"boundBoxMinY":10000000.0,
						"boundBoxMinZ":10000000.0,
						"boundBoxMaxX":-10000000.0,
						"boundBoxMaxY":-10000000.0,
						"boundBoxMaxZ":-10000000.0,
						"faceCountRender":6,
						"meshPolyType":"quad",
						"manifold":true,
						"objectCount":1,
						"nodeCount":14,
						"textureCount":0,
						"megapixels":0,
						"textAIcheckedDate":"2023-11-28",
						"nodevember":"day-29-30",
						"imageAltTextGen4v":"Vibrant red and blue particle simulation for abstract motion design using Blender 3D's GN feature."
					},
					"canDownload":true,
					"canDownloadError":true,
					"available_resolutions":[],
					"max_resolution":0,
					"tooltip_data":{
						"aname":"Abstract Canvas (GN)",
						"author_text":"by Alexey Brodsky",
						"quality":"8"
					},
					"resolution":"resolution_2K"
				}
			},
			"mesh":0,
			"name":"Abstract Canvas"
		}
	],
	"materials":[
		{
			"doubleSided":true,
			"name":"Particles01",
			"pbrMetallicRoughness":{
				"metallicFactor":0.2036363184452057,
				"roughnessFactor":0.4636363685131073
			}
		}
	],
	"meshes":[
		{
			"name":"Cube.001",
			"primitives":[
				{
					"attributes":{
						"POSITION":0,
						"NORMAL":1,
						"TEXCOORD_0":2
					},
					"indices":3,
					"material":0
				}
			]
		}
	],
	"accessors":[
		{
			"bufferView":0,
			"componentType":5126,
			"count":24,
			"max":[
				1,
				1,
				1
			],
			"min":[
				-1,
				-1,
				-1
			],
			"type":"VEC3"
		},
		{
			"bufferView":1,
			"componentType":5126,
			"count":24,
			"type":"VEC3"
		},
		{
			"bufferView":2,
			"componentType":5126,
			"count":24,
			"type":"VEC2"
		},
		{
			"bufferView":3,
			"componentType":5123,
			"count":36,
			"type":"SCALAR"
		}
	],
	"bufferViews":[
		{
			"buffer":0,
			"byteLength":288,
			"byteOffset":0,
			"target":34962
		},
		{
			"buffer":0,
			"byteLength":288,
			"byteOffset":288,
			"target":34962
		},
		{
			"buffer":0,
			"byteLength":192,
			"byteOffset":576,
			"target":34962
		},
		{
			"buffer":0,
			"byteLength":72,
			"byteOffset":768,
			"target":34963
		}
	],
	"buffers":[
		{
			"byteLength":840,
			"uri":"abstract.bin"
		}
	]
}
