{
	"asset":{
		"generator":"Khronos glTF Blender I/O v4.0.44",
		"version":"2.0"
	},
	"scene":0,
	"scenes":[
		{
			"name":"Scene",
			"nodes":[
				4
			]
		}
	],
	"nodes":[
		{
			"mesh":0,
			"name":"Other Things",
			"rotation":[
				0,
				-1,
				0,
				1.9470719792025193e-07
			],
			"translation":[
				-0.23216287791728973,
				1.5115418434143066,
				0.1738993525505066
			]
		},
		{
			"mesh":1,
			"name":"Text",
			"rotation":[
				0.8375102281570435,
				-0.12408396601676941,
				0.23000402748584747,
				0.47987285256385803
			],
			"scale":[
				0.18213966488838196,
				0.19154751300811768,
				0.20796486735343933
			],
			"translation":[
				0.3866645395755768,
				2.07592511177063,
				0.32062265276908875
			]
		},
		{
			"mesh":2,
			"name":"Text.001",
			"rotation":[
				0.8685312867164612,
				0,
				0,
				0.4956345856189728
			],
			"scale":[
				0.15292489528656006,
				0.1608237624168396,
				0.1746077984571457
			],
			"translation":[
				-0.08386067301034927,
				1.5668874979019165,
				0.24466601014137268
			]
		},
		{
			"mesh":3,
			"name":"thingy",
			"rotation":[
				0,
				-1,
				0,
				1.9470719792025193e-07
			],
			"translation":[
				-0.17129382491111755,
				1.5115418434143066,
				0.1738993376493454
			]
		},
		{
			"children":[
				0,
				1,
				2,
				3
			],
			"mesh":4,
			"name":"Happy Robot"
		}
	],
	"materials":[
		{
			"doubleSided":true,
			"name":"Blue_Robot",
			"pbrMetallicRoughness":{
				"metallicFactor":0,
				"roughnessFactor":0.5
			}
		},
		{
			"doubleSided":true,
			"name":"Orange_Robot",
			"pbrMetallicRoughness":{
				"metallicFactor":0,
				"roughnessFactor":0.5
			}
		},
		{
			"doubleSided":true,
			"name":"Orange_Robot_Bright",
			"pbrMetallicRoughness":{
				"metallicFactor":0,
				"roughnessFactor":0.5
			}
		}
	],
	"meshes":[
		{
			"name":"BezierCurve.001",
			"primitives":[
				{
					"attributes":{
						"POSITION":0,
						"NORMAL":1,
						"TEXCOORD_0":2
					},
					"indices":3,
					"material":0
				}
			]
		},
		{
			"name":"Text",
			"primitives":[
				{
					"attributes":{
						"POSITION":4,
						"NORMAL":5,
						"TEXCOORD_0":6
					},
					"indices":7,
					"material":1
				}
			]
		},
		{
			"name":"Text.001",
			"primitives":[
				{
					"attributes":{
						"POSITION":8,
						"NORMAL":9,
						"TEXCOORD_0":10
					},
					"indices":11,
					"material":1
				}
			]
		},
		{
			"name":"BezierCurve",
			"primitives":[
				{
					"attributes":{
						"POSITION":12,
						"NORMAL":13,
						"TEXCOORD_0":14
					},
					"indices":15,
					"material":2
				}
			]
		},
		{
			"name":"Cube.001",
			"primitives":[
				{
					"attributes":{
						"POSITION":16,
						"NORMAL":17,
						"TEXCOORD_0":18,
						"TEXCOORD_1":19
					},
					"indices":20,
					"material":0
				},
				{
					"attributes":{
						"POSITION":21,
						"NORMAL":22,
						"TEXCOORD_0":23,
						"TEXCOORD_1":24
					},
					"indices":25,
					"material":1
				}
			]
		}
	],
	"accessors":[
		{
			"bufferView":0,
			"componentType":5126,
			"count":2067,
			"max":[
				-0.15435369312763214,
				-0.1655188798904419,
				0.5520405173301697
			],
			"min":[
				-0.3665757477283478,
				-0.7839248776435852,
				0.3270811140537262
			],
			"type":"VEC3"
		},
		{
			"bufferView":1,
			"componentType":5126,
			"count":2067,
			"type":"VEC3"
		},
		{
			"bufferView":2,
			"componentType":5126,
			"count":2067,
			"type":"VEC2"
		},
		{
			"bufferView":3,
			"componentType":5123,
			"count":11232,
			"type":"SCALAR"
		},
		{
			"bufferView":4,
			"componentType":5126,
			"count":22675,
			"max":[
				0.693751335144043,
				0.04999999701976776,
				0.26875001192092896
			],
			"min":[
				-0.6000012159347534,
				-0.04999999701976776,
				-0.26874998211860657
			],
			"type":"VEC3"
		},
		{
			"bufferView":5,
			"componentType":5126,
			"count":22675,
			"type":"VEC3"
		},
		{
			"bufferView":6,
			"componentType":5126,
			"count":22675,
			"type":"VEC2"
		},
		{
			"bufferView":7,
			"componentType":5123,
			"count":114450,
			"type":"SCALAR"
		},
		{
			"bufferView":8,
			"componentType":5126,
			"count":38758,
			"max":[
				1.6312512159347534,
				0.04999999701976776,
				0.39374998211860657
			],
			"min":[
				-0.6000012159347534,
				-0.04999999701976776,
				-0.26875001192092896
			],
			"type":"VEC3"
		},
		{
			"bufferView":9,
			"componentType":5126,
			"count":38758,
			"type":"VEC3"
		},
		{
			"bufferView":10,
			"componentType":5126,
			"count":38758,
			"type":"VEC2"
		},
		{
			"bufferView":11,
			"componentType":5123,
			"count":195636,
			"type":"SCALAR"
		},
		{
			"bufferView":12,
			"componentType":5126,
			"count":1755,
			"max":[
				0.16540387272834778,
				-0.0006612734869122505,
				0.1988377422094345
			],
			"min":[
				-0.21448691189289093,
				-1.4474914073944092,
				-0.06273799389600754
			],
			"type":"VEC3"
		},
		{
			"bufferView":13,
			"componentType":5126,
			"count":1755,
			"type":"VEC3"
		},
		{
			"bufferView":14,
			"componentType":5126,
			"count":1755,
			"type":"VEC2"
		},
		{
			"bufferView":15,
			"componentType":5123,
			"count":9504,
			"type":"SCALAR"
		},
		{
			"bufferView":16,
			"componentType":5126,
			"count":18706,
			"max":[
				0.8105069994926453,
				2.471405506134033,
				0.5135275721549988
			],
			"min":[
				-1.054800271987915,
				-0.004147529602050781,
				-0.2999996244907379
			],
			"type":"VEC3"
		},
		{
			"bufferView":17,
			"componentType":5126,
			"count":18706,
			"type":"VEC3"
		},
		{
			"bufferView":18,
			"componentType":5126,
			"count":18706,
			"type":"VEC2"
		},
		{
			"bufferView":19,
			"componentType":5126,
			"count":18706,
			"type":"VEC2"
		},
		{
			"bufferView":20,
			"componentType":5123,
			"count":55350,
			"type":"SCALAR"
		},
		{
			"bufferView":21,
			"componentType":5126,
			"count":210135,
			"max":[
				0.810905933380127,
				2.4722468852996826,
				0.5156830549240112
			],
			"min":[
				-1.0556954145431519,
				0.10408133268356323,
				-0.30233320593833923
			],
			"type":"VEC3"
		},
		{
			"bufferView":22,
			"componentType":5126,
			"count":210135,
			"type":"VEC3"
		},
		{
			"bufferView":23,
			"componentType":5126,
			"count":210135,
			"type":"VEC2"
		},
		{
			"bufferView":24,
			"componentType":5126,
			"count":210135,
			"type":"VEC2"
		},
		{
			"bufferView":25,
			"componentType":5125,
			"count":347244,
			"type":"SCALAR"
		}
	],
	"bufferViews":[
		{
			"buffer":0,
			"byteLength":24804,
			"byteOffset":0,
			"target":34962
		},
		{
			"buffer":0,
			"byteLength":24804,
			"byteOffset":24804,
			"target":34962
		},
		{
			"buffer":0,
			"byteLength":16536,
			"byteOffset":49608,
			"target":34962
		},
		{
			"buffer":0,
			"byteLength":22464,
			"byteOffset":66144,
			"target":34963
		},
		{
			"buffer":0,
			"byteLength":272100,
			"byteOffset":88608,
			"target":34962
		},
		{
			"buffer":0,
			"byteLength":272100,
			"byteOffset":360708,
			"target":34962
		},
		{
			"buffer":0,
			"byteLength":181400,
			"byteOffset":632808,
			"target":34962
		},
		{
			"buffer":0,
			"byteLength":228900,
			"byteOffset":814208,
			"target":34963
		},
		{
			"buffer":0,
			"byteLength":465096,
			"byteOffset":1043108,
			"target":34962
		},
		{
			"buffer":0,
			"byteLength":465096,
			"byteOffset":1508204,
			"target":34962
		},
		{
			"buffer":0,
			"byteLength":310064,
			"byteOffset":1973300,
			"target":34962
		},
		{
			"buffer":0,
			"byteLength":391272,
			"byteOffset":2283364,
			"target":34963
		},
		{
			"buffer":0,
			"byteLength":21060,
			"byteOffset":2674636,
			"target":34962
		},
		{
			"buffer":0,
			"byteLength":21060,
			"byteOffset":2695696,
			"target":34962
		},
		{
			"buffer":0,
			"byteLength":14040,
			"byteOffset":2716756,
			"target":34962
		},
		{
			"buffer":0,
			"byteLength":19008,
			"byteOffset":2730796,
			"target":34963
		},
		{
			"buffer":0,
			"byteLength":224472,
			"byteOffset":2749804,
			"target":34962
		},
		{
			"buffer":0,
			"byteLength":224472,
			"byteOffset":2974276,
			"target":34962
		},
		{
			"buffer":0,
			"byteLength":149648,
			"byteOffset":3198748,
			"target":34962
		},
		{
			"buffer":0,
			"byteLength":149648,
			"byteOffset":3348396,
			"target":34962
		},
		{
			"buffer":0,
			"byteLength":110700,
			"byteOffset":3498044,
			"target":34963
		},
		{
			"buffer":0,
			"byteLength":2521620,
			"byteOffset":3608744,
			"target":34962
		},
		{
			"buffer":0,
			"byteLength":2521620,
			"byteOffset":6130364,
			"target":34962
		},
		{
			"buffer":0,
			"byteLength":1681080,
			"byteOffset":8651984,
			"target":34962
		},
		{
			"buffer":0,
			"byteLength":1681080,
			"byteOffset":10333064,
			"target":34962
		},
		{
			"buffer":0,
			"byteLength":1388976,
			"byteOffset":12014144,
			"target":34963
		}
	],
	"buffers":[
		{
			"byteLength":13403120,
			"uri":"robo.bin"
		}
	]
}
